<svg xmlns="http://www.w3.org/2000/svg" viewBox="0 0 300 300"><defs><style>.cls-1{fill:#f66;}.cls-2{fill:#64e9f5;}.cls-3{fill:#e65c5c;}.cls-4{fill:#66f7ff;}</style></defs><title>logo_sign</title><g id="圖層_1" data-name="圖層 1"><path class="cls-1" d="M216.22,111c-7.82,4.55-23.64,13.56-31.48,18.07-8.65,5-34.48,19.9-34.48,19.9L114.2,169.58l-.06,0-1.62-1c-.55-.33-1.1-.68-1.64-1s-1.08-.71-1.61-1.08c-.38-.26-.76-.52-1.13-.79a69.46,69.46,0,0,1-28.72-51.05c0-.46-.06-.91-.08-1.37s0-.9,0-1.36a4.05,4.05,0,0,1,2-3.66l67-41.23a4.12,4.12,0,0,1,4,0l64,37.09C218.67,105.62,219.32,109.22,216.22,111Z"/><path class="cls-2" d="M220.71,188v.2a3.74,3.74,0,0,1-2,3.47L152.27,233a4,4,0,0,1-4,0L82.23,195a3.82,3.82,0,0,1,0-6.9l32-18.54L150.26,149l34.48-19.89c2.11,1.22,4.21,2.5,6.27,3.84a68.1,68.1,0,0,1,28.08,41,85.32,85.32,0,0,1,1.61,13.9A1,1,0,0,1,220.71,188Z"/><path class="cls-3" d="M150.26,149,114.2,169.58l-.06,0-1.62-1c-.55-.33-1.1-.68-1.64-1s-1.08-.71-1.61-1.08c-.38-.26-.76-.52-1.13-.79l-1.48-1.09a69.43,69.43,0,0,1-27.15-49,2.46,2.46,0,0,1,0-.26c-.06-.77-.11-1.56-.15-2.35a2,2,0,0,1,3-1.82l31.92,17Z"/><path class="cls-4" d="M220.71,188.12v.06a3.74,3.74,0,0,1-2,3.47L152.27,233s0,0,0,0a1.37,1.37,0,0,1-2-1.24V149l34.48-19.89c2.11,1.22,4.21,2.5,6.27,3.84a68.1,68.1,0,0,1,28.08,41,85.32,85.32,0,0,1,1.61,13.9C220.71,187.91,220.71,188,220.71,188.12Z"/></g></svg>